# Wavefront OBJ file automatically generated by Tiled2Unity

# Vertices (Count = 419)
v -0.4 -0.72 0
v -0.56 -0.72 0
v -0.56 -0.56 0
v -0.4 -0.56 0
v -0.72 -0.72 0
v -0.72 -0.56 0
v -0.88 -0.72 0
v -0.88 -0.56 0
v -1.04 -0.72 0
v -1.04 -0.56 0
v -1.2 -0.72 0
v -1.2 -0.56 0
v -1.36 -0.72 0
v -1.36 -0.56 0
v -1.52 -0.72 0
v -1.52 -0.56 0
v -1.68 -0.72 0
v -1.68 -0.56 0
v -1.84 -0.72 0
v -1.84 -0.56 0
v -2 -0.72 0
v -2 -0.56 0
v -0.4 -0.88 0
v -0.56 -0.88 0
v -0.72 -0.88 0
v -0.88 -0.88 0
v -1.04 -0.88 0
v -1.2 -0.88 0
v -1.36 -0.88 0
v -1.52 -0.88 0
v -1.68 -0.88 0
v -1.84 -0.88 0
v -2 -0.88 0
v -0.4 -1.04 0
v -0.56 -1.04 0
v -0.72 -1.04 0
v -0.88 -1.04 0
v -1.04 -1.04 0
v -1.2 -1.04 0
v -1.36 -1.04 0
v -1.52 -1.04 0
v -1.68 -1.04 0
v -1.84 -1.04 0
v -2 -1.04 0
v -0.4 -1.2 0
v -0.56 -1.2 0
v -0.72 -1.2 0
v -0.88 -1.2 0
v -1.04 -1.2 0
v -1.2 -1.2 0
v -1.36 -1.2 0
v -1.52 -1.2 0
v -1.68 -1.2 0
v -1.84 -1.2 0
v -2 -1.2 0
v -0.4 -1.36 0
v -0.56 -1.36 0
v -0.72 -1.36 0
v -0.88 -1.36 0
v -1.04 -1.36 0
v -1.2 -1.36 0
v -1.36 -1.36 0
v -1.52 -1.36 0
v -1.68 -1.36 0
v -1.84 -1.36 0
v -2 -1.36 0
v -2.16 -1.36 0
v -2.16 -1.2 0
v -2.32 -1.36 0
v -2.32 -1.2 0
v -2.48 -1.36 0
v -2.48 -1.2 0
v -2.64 -1.36 0
v -2.64 -1.2 0
v -2.8 -1.36 0
v -2.8 -1.2 0
v -2.96 -1.36 0
v -2.96 -1.2 0
v -3.12 -1.36 0
v -3.12 -1.2 0
v -3.28 -1.36 0
v -3.28 -1.2 0
v -0.4 -1.52 0
v -0.56 -1.52 0
v -0.72 -1.52 0
v -0.88 -1.52 0
v -1.04 -1.52 0
v -1.2 -1.52 0
v -1.36 -1.52 0
v -1.52 -1.52 0
v -1.68 -1.52 0
v -1.84 -1.52 0
v -2 -1.52 0
v -2.16 -1.52 0
v -2.32 -1.52 0
v -2.48 -1.52 0
v -2.64 -1.52 0
v -2.8 -1.52 0
v -2.96 -1.52 0
v -3.12 -1.52 0
v -3.28 -1.52 0
v -0.4 -1.68 0
v -0.56 -1.68 0
v -0.72 -1.68 0
v -0.88 -1.68 0
v -1.04 -1.68 0
v -1.2 -1.68 0
v -1.36 -1.68 0
v -1.52 -1.68 0
v -1.68 -1.68 0
v -1.84 -1.68 0
v -2 -1.68 0
v -0.4 -1.84 0
v -0.56 -1.84 0
v -0.72 -1.84 0
v -0.88 -1.84 0
v -1.04 -1.84 0
v -1.2 -1.84 0
v -1.36 -1.84 0
v -1.52 -1.84 0
v -1.68 -1.84 0
v -1.84 -1.84 0
v -2 -1.84 0
v -0.4 -2 0
v -0.56 -2 0
v -0.72 -2 0
v -0.88 -2 0
v -1.04 -2 0
v -1.2 -2 0
v -1.36 -2 0
v -1.52 -2 0
v -1.68 -2 0
v -1.84 -2 0
v -2 -2 0
v -0.4 -2.16 0
v -0.56 -2.16 0
v -0.72 -2.16 0
v -0.88 -2.16 0
v -1.04 -2.16 0
v -1.2 -2.16 0
v -1.36 -2.16 0
v -1.52 -2.16 0
v -1.68 -2.16 0
v -1.84 -2.16 0
v -2 -2.16 0
v -0.32 -0.64 0
v -0.64 -0.64 0
v -0.64 -0.32 0
v -0.32 -0.32 0
v -0.8 -0.64 0
v -0.8 -0.32 0
v -0.96 -0.64 0
v -0.96 -0.32 0
v -1.12 -0.64 0
v -1.12 -0.32 0
v -1.28 -0.64 0
v -1.28 -0.32 0
v -1.44 -0.64 0
v -1.44 -0.32 0
v -1.6 -0.64 0
v -1.6 -0.32 0
v -1.76 -0.64 0
v -1.76 -0.32 0
v -1.92 -0.64 0
v -1.92 -0.32 0
v -2 -1.28 0
v -2.16 -1.28 0
v -2.16 -0.96 0
v -2 -0.96 0
v -2.32 -1.28 0
v -2.32 -0.96 0
v -2.48 -1.28 0
v -2.48 -0.96 0
v -2.64 -1.28 0
v -2.64 -0.96 0
v -2.8 -1.28 0
v -2.8 -0.96 0
v -2.96 -1.28 0
v -2.96 -0.96 0
v -3.12 -1.28 0
v -3.12 -0.96 0
v -3.28 -1.28 0
v -3.28 -0.96 0
v -2.24 -0.64 0
v -2.24 -0.32 0
v -0.32 -0.8 0
v -0.64 -0.8 0
v -0.32 -0.96 0
v -0.64 -0.96 0
v -0.32 -1.12 0
v -0.64 -1.12 0
v -0.32 -1.28 0
v -0.64 -1.28 0
v -0.32 -1.44 0
v -0.64 -1.44 0
v -0.32 -1.6 0
v -0.64 -1.6 0
v -0.32 -1.76 0
v -0.64 -1.76 0
v -0.32 -1.92 0
v -0.64 -1.92 0
v -0.32 -2.08 0
v -0.64 -2.08 0
v -1.92 -0.8 0
v -2.24 -0.8 0
v -1.92 -0.96 0
v -2.24 -0.96 0
v -1.92 -1.92 0
v -2.24 -1.92 0
v -2.24 -1.76 0
v -1.92 -1.76 0
v -1.92 -2.08 0
v -2.24 -2.08 0
v -2 -1.76 0
v -2.16 -1.76 0
v -2.16 -1.44 0
v -2 -1.44 0
v -2.32 -1.76 0
v -2.32 -1.44 0
v -2.48 -1.76 0
v -2.48 -1.44 0
v -2.64 -1.76 0
v -2.64 -1.44 0
v -2.8 -1.76 0
v -2.8 -1.44 0
v -2.96 -1.76 0
v -2.96 -1.44 0
v -3.12 -1.76 0
v -3.12 -1.44 0
v -3.28 -1.76 0
v -3.28 -1.44 0
v -0.64 -2.32 0
v -0.8 -2.32 0
v -0.8 -2 0
v -0.64 -2 0
v -0.96 -2.32 0
v -0.96 -2 0
v -1.12 -2.32 0
v -1.12 -2 0
v -1.28 -2.32 0
v -1.28 -2 0
v -1.44 -2.32 0
v -1.44 -2 0
v -1.6 -2.32 0
v -1.6 -2 0
v -1.76 -2.32 0
v -1.76 -2 0
v -1.92 -2.32 0
v -1.92 -2 0
v -0.32 -2.32 0
v -0.32 -2 0
v -2.24 -2.32 0
v -2.24 -2 0
v -0.96 -2.16 0
v -1.04 -2.08 0
v -0.96 -2.08 0
v -1.12 -2.16 0
v -1.12 -2.08 0
v -1.2 -2.08 0
v -1.28 -2.16 0
v -1.28 -2.08 0
v -1.36 -2.08 0
v -1.44 -2.16 0
v -1.44 -2.08 0
v -1.52 -2.08 0
v -1.6 -2.16 0
v -1.6 -2.08 0
v -0.96 -2.24 0
v -1.04 -2.24 0
v -1.12 -2.24 0
v -1.2 -2.24 0
v -1.28 -2.24 0
v -1.36 -2.24 0
v -1.44 -2.24 0
v -1.52 -2.24 0
v -1.6 -2.24 0
v -1.04 -2.32 0
v -1.2 -2.32 0
v -1.36 -2.32 0
v -1.52 -2.32 0
v -0.48 -0.56 0
v -0.56 -0.48 0
v -0.48 -0.48 0
v -0.64 -0.56 0
v -0.64 -0.48 0
v -0.72 -0.48 0
v -0.8 -0.56 0
v -0.8 -0.48 0
v -0.88 -0.48 0
v -0.96 -0.56 0
v -0.96 -0.48 0
v -1.04 -0.48 0
v -1.12 -0.56 0
v -1.12 -0.48 0
v -1.2 -0.48 0
v -1.28 -0.56 0
v -1.28 -0.48 0
v -1.36 -0.48 0
v -1.44 -0.56 0
v -1.44 -0.48 0
v -1.52 -0.48 0
v -1.6 -0.56 0
v -1.6 -0.48 0
v -1.68 -0.48 0
v -1.76 -0.56 0
v -1.76 -0.48 0
v -1.84 -0.48 0
v -1.92 -0.56 0
v -1.92 -0.48 0
v -2 -0.48 0
v -0.48 -0.64 0
v -0.56 -0.64 0
v -2 -0.64 0
v -2.08 -0.64 0
v -2.08 -0.56 0
v -0.48 -0.72 0
v -2.08 -0.72 0
v -0.48 -0.8 0
v -0.56 -0.8 0
v -2 -0.8 0
v -2.08 -0.8 0
v -0.48 -0.88 0
v -2.08 -0.88 0
v -0.48 -0.96 0
v -0.56 -0.96 0
v -2.08 -0.96 0
v -0.48 -1.04 0
v -2.08 -1.04 0
v -0.48 -1.12 0
v -0.56 -1.12 0
v -2 -1.12 0
v -2.08 -1.12 0
v -0.48 -1.2 0
v -2.08 -1.2 0
v -2.16 -1.12 0
v -2.24 -1.2 0
v -2.24 -1.12 0
v -2.32 -1.12 0
v -2.4 -1.2 0
v -2.4 -1.12 0
v -2.48 -1.12 0
v -2.56 -1.2 0
v -2.56 -1.12 0
v -2.64 -1.12 0
v -2.72 -1.2 0
v -2.72 -1.12 0
v -2.8 -1.12 0
v -2.88 -1.2 0
v -2.88 -1.12 0
v -2.96 -1.12 0
v -3.04 -1.2 0
v -3.04 -1.12 0
v -3.12 -1.12 0
v -3.2 -1.2 0
v -3.2 -1.12 0
v -3.28 -1.12 0
v -0.48 -1.28 0
v -0.56 -1.28 0
v -0.48 -1.36 0
v -0.48 -1.44 0
v -0.56 -1.44 0
v -0.48 -1.52 0
v -0.48 -1.6 0
v -0.56 -1.6 0
v -2 -1.6 0
v -2.08 -1.6 0
v -2.08 -1.52 0
v -2.16 -1.6 0
v -2.24 -1.6 0
v -2.24 -1.52 0
v -2.32 -1.6 0
v -2.4 -1.6 0
v -2.4 -1.52 0
v -2.48 -1.6 0
v -2.56 -1.6 0
v -2.56 -1.52 0
v -2.64 -1.6 0
v -2.72 -1.6 0
v -2.72 -1.52 0
v -2.8 -1.6 0
v -2.88 -1.6 0
v -2.88 -1.52 0
v -2.96 -1.6 0
v -3.04 -1.6 0
v -3.04 -1.52 0
v -3.12 -1.6 0
v -3.2 -1.6 0
v -3.2 -1.52 0
v -3.28 -1.6 0
v -0.48 -1.68 0
v -2.08 -1.68 0
v -0.48 -1.76 0
v -0.56 -1.76 0
v -2.08 -1.76 0
v -0.48 -1.84 0
v -2.08 -1.84 0
v -0.48 -1.92 0
v -0.56 -1.92 0
v -2 -1.92 0
v -2.08 -1.92 0
v -0.48 -2 0
v -2.08 -2 0
v -0.48 -2.08 0
v -0.56 -2.08 0
v -2 -2.08 0
v -2.08 -2.08 0
v -0.64 -2.16 0
v -0.72 -2.08 0
v -0.8 -2.16 0
v -0.8 -2.08 0
v -0.88 -2.08 0
v -1.68 -2.08 0
v -1.76 -2.16 0
v -1.76 -2.08 0
v -1.84 -2.08 0
v -1.92 -2.16 0
v -2.08 -0.48 0
v -0.48 -2.16 0
v -2.08 -2.16 0

# Texture cooridinates (Count = 4)
vt 0.0001220703 0.0001220703
vt 0.9998779 0.0001220703
vt 0.9998779 0.9998779
vt 0.0001220703 0.9998779

# Normal
vn 0 0 -1

# Groups (Count = 8)

g mesh_0001
f 1/1/1 2/2/1 3/3/1 4/4/1
f 2/1/1 5/2/1 6/3/1 3/4/1
f 5/1/1 7/2/1 8/3/1 6/4/1
f 7/1/1 9/2/1 10/3/1 8/4/1
f 9/1/1 11/2/1 12/3/1 10/4/1
f 11/1/1 13/2/1 14/3/1 12/4/1
f 13/1/1 15/2/1 16/3/1 14/4/1
f 15/1/1 17/2/1 18/3/1 16/4/1
f 17/1/1 19/2/1 20/3/1 18/4/1
f 19/1/1 21/2/1 22/3/1 20/4/1
f 23/1/1 24/2/1 2/3/1 1/4/1
f 24/1/1 25/2/1 5/3/1 2/4/1
f 25/1/1 26/2/1 7/3/1 5/4/1
f 26/1/1 27/2/1 9/3/1 7/4/1
f 27/1/1 28/2/1 11/3/1 9/4/1
f 28/1/1 29/2/1 13/3/1 11/4/1
f 29/1/1 30/2/1 15/3/1 13/4/1
f 30/1/1 31/2/1 17/3/1 15/4/1
f 31/1/1 32/2/1 19/3/1 17/4/1
f 32/1/1 33/2/1 21/3/1 19/4/1
f 34/1/1 35/2/1 24/3/1 23/4/1
f 35/1/1 36/2/1 25/3/1 24/4/1
f 36/1/1 37/2/1 26/3/1 25/4/1
f 37/1/1 38/2/1 27/3/1 26/4/1
f 38/1/1 39/2/1 28/3/1 27/4/1
f 39/1/1 40/2/1 29/3/1 28/4/1
f 40/1/1 41/2/1 30/3/1 29/4/1
f 41/1/1 42/2/1 31/3/1 30/4/1
f 42/1/1 43/2/1 32/3/1 31/4/1
f 43/1/1 44/2/1 33/3/1 32/4/1
f 45/1/1 46/2/1 35/3/1 34/4/1
f 46/1/1 47/2/1 36/3/1 35/4/1
f 47/1/1 48/2/1 37/3/1 36/4/1
f 48/1/1 49/2/1 38/3/1 37/4/1
f 49/1/1 50/2/1 39/3/1 38/4/1
f 50/1/1 51/2/1 40/3/1 39/4/1
f 51/1/1 52/2/1 41/3/1 40/4/1
f 52/1/1 53/2/1 42/3/1 41/4/1
f 53/1/1 54/2/1 43/3/1 42/4/1
f 54/1/1 55/2/1 44/3/1 43/4/1
f 56/1/1 57/2/1 46/3/1 45/4/1
f 57/1/1 58/2/1 47/3/1 46/4/1
f 58/1/1 59/2/1 48/3/1 47/4/1
f 59/1/1 60/2/1 49/3/1 48/4/1
f 60/1/1 61/2/1 50/3/1 49/4/1
f 61/1/1 62/2/1 51/3/1 50/4/1
f 62/1/1 63/2/1 52/3/1 51/4/1
f 63/1/1 64/2/1 53/3/1 52/4/1
f 64/1/1 65/2/1 54/3/1 53/4/1
f 65/1/1 66/2/1 55/3/1 54/4/1
f 66/1/1 67/2/1 68/3/1 55/4/1
f 67/1/1 69/2/1 70/3/1 68/4/1
f 69/1/1 71/2/1 72/3/1 70/4/1
f 71/1/1 73/2/1 74/3/1 72/4/1
f 73/1/1 75/2/1 76/3/1 74/4/1
f 75/1/1 77/2/1 78/3/1 76/4/1
f 77/1/1 79/2/1 80/3/1 78/4/1
f 79/1/1 81/2/1 82/3/1 80/4/1
f 83/1/1 84/2/1 57/3/1 56/4/1
f 84/1/1 85/2/1 58/3/1 57/4/1
f 85/1/1 86/2/1 59/3/1 58/4/1
f 86/1/1 87/2/1 60/3/1 59/4/1
f 87/1/1 88/2/1 61/3/1 60/4/1
f 88/1/1 89/2/1 62/3/1 61/4/1
f 89/1/1 90/2/1 63/3/1 62/4/1
f 90/1/1 91/2/1 64/3/1 63/4/1
f 91/1/1 92/2/1 65/3/1 64/4/1
f 92/1/1 93/2/1 66/3/1 65/4/1
f 93/1/1 94/2/1 67/3/1 66/4/1
f 94/1/1 95/2/1 69/3/1 67/4/1
f 95/1/1 96/2/1 71/3/1 69/4/1
f 96/1/1 97/2/1 73/3/1 71/4/1
f 97/1/1 98/2/1 75/3/1 73/4/1
f 98/1/1 99/2/1 77/3/1 75/4/1
f 99/1/1 100/2/1 79/3/1 77/4/1
f 100/1/1 101/2/1 81/3/1 79/4/1
f 102/1/1 103/2/1 84/3/1 83/4/1
f 103/1/1 104/2/1 85/3/1 84/4/1
f 104/1/1 105/2/1 86/3/1 85/4/1
f 105/1/1 106/2/1 87/3/1 86/4/1
f 106/1/1 107/2/1 88/3/1 87/4/1
f 107/1/1 108/2/1 89/3/1 88/4/1
f 108/1/1 109/2/1 90/3/1 89/4/1
f 109/1/1 110/2/1 91/3/1 90/4/1
f 110/1/1 111/2/1 92/3/1 91/4/1
f 111/1/1 112/2/1 93/3/1 92/4/1
f 113/1/1 114/2/1 103/3/1 102/4/1
f 114/1/1 115/2/1 104/3/1 103/4/1
f 115/1/1 116/2/1 105/3/1 104/4/1
f 116/1/1 117/2/1 106/3/1 105/4/1
f 117/1/1 118/2/1 107/3/1 106/4/1
f 118/1/1 119/2/1 108/3/1 107/4/1
f 119/1/1 120/2/1 109/3/1 108/4/1
f 120/1/1 121/2/1 110/3/1 109/4/1
f 121/1/1 122/2/1 111/3/1 110/4/1
f 122/1/1 123/2/1 112/3/1 111/4/1
f 124/1/1 125/2/1 114/3/1 113/4/1
f 125/1/1 126/2/1 115/3/1 114/4/1
f 126/1/1 127/2/1 116/3/1 115/4/1
f 127/1/1 128/2/1 117/3/1 116/4/1
f 128/1/1 129/2/1 118/3/1 117/4/1
f 129/1/1 130/2/1 119/3/1 118/4/1
f 130/1/1 131/2/1 120/3/1 119/4/1
f 131/1/1 132/2/1 121/3/1 120/4/1
f 132/1/1 133/2/1 122/3/1 121/4/1
f 133/1/1 134/2/1 123/3/1 122/4/1
f 135/1/1 136/2/1 125/3/1 124/4/1
f 136/1/1 137/2/1 126/3/1 125/4/1
f 137/1/1 138/2/1 127/3/1 126/4/1
f 138/1/1 139/2/1 128/3/1 127/4/1
f 139/1/1 140/2/1 129/3/1 128/4/1
f 140/1/1 141/2/1 130/3/1 129/4/1
f 141/1/1 142/2/1 131/3/1 130/4/1
f 142/1/1 143/2/1 132/3/1 131/4/1
f 143/1/1 144/2/1 133/3/1 132/4/1
f 144/1/1 145/2/1 134/3/1 133/4/1

g mesh_0002
f 146/1/1 147/2/1 148/3/1 149/4/1

g mesh_0003
f 147/1/1 150/2/1 151/3/1 148/4/1
f 150/1/1 152/2/1 153/3/1 151/4/1
f 152/1/1 154/2/1 155/3/1 153/4/1
f 154/1/1 156/2/1 157/3/1 155/4/1
f 156/1/1 158/2/1 159/3/1 157/4/1
f 158/1/1 160/2/1 161/3/1 159/4/1
f 160/1/1 162/2/1 163/3/1 161/4/1
f 162/1/1 164/2/1 165/3/1 163/4/1
f 166/1/1 167/2/1 168/3/1 169/4/1
f 167/1/1 170/2/1 171/3/1 168/4/1
f 170/1/1 172/2/1 173/3/1 171/4/1
f 172/1/1 174/2/1 175/3/1 173/4/1
f 174/1/1 176/2/1 177/3/1 175/4/1
f 176/1/1 178/2/1 179/3/1 177/4/1
f 178/1/1 180/2/1 181/3/1 179/4/1
f 180/1/1 182/2/1 183/3/1 181/4/1

g mesh_0004
f 164/1/1 184/2/1 185/3/1 165/4/1

g mesh_0005
f 186/1/1 187/2/1 147/3/1 146/4/1
f 188/1/1 189/2/1 187/3/1 186/4/1
f 190/1/1 191/2/1 189/3/1 188/4/1
f 192/1/1 193/2/1 191/3/1 190/4/1
f 194/1/1 195/2/1 193/3/1 192/4/1
f 196/1/1 197/2/1 195/3/1 194/4/1
f 198/1/1 199/2/1 197/3/1 196/4/1
f 200/1/1 201/2/1 199/3/1 198/4/1
f 202/1/1 203/2/1 201/3/1 200/4/1

g mesh_0006
f 204/1/1 205/2/1 184/3/1 164/4/1
f 206/1/1 207/2/1 205/3/1 204/4/1
f 208/1/1 209/2/1 210/3/1 211/4/1
f 212/1/1 213/2/1 209/3/1 208/4/1

g mesh_0007
f 214/1/1 215/2/1 216/3/1 217/4/1
f 215/1/1 218/2/1 219/3/1 216/4/1
f 218/1/1 220/2/1 221/3/1 219/4/1
f 220/1/1 222/2/1 223/3/1 221/4/1
f 222/1/1 224/2/1 225/3/1 223/4/1
f 224/1/1 226/2/1 227/3/1 225/4/1
f 226/1/1 228/2/1 229/3/1 227/4/1
f 228/1/1 230/2/1 231/3/1 229/4/1
f 232/1/1 233/2/1 234/3/1 235/4/1
f 233/1/1 236/2/1 237/3/1 234/4/1
f 236/1/1 238/2/1 239/3/1 237/4/1
f 238/1/1 240/2/1 241/3/1 239/4/1
f 240/1/1 242/2/1 243/3/1 241/4/1
f 242/1/1 244/2/1 245/3/1 243/4/1
f 244/1/1 246/2/1 247/3/1 245/4/1
f 246/1/1 248/2/1 249/3/1 247/4/1

g mesh_0008
f 250/1/1 232/2/1 235/3/1 251/4/1

g mesh_0009
f 248/1/1 252/2/1 253/3/1 249/4/1

g mesh_0010
f 240/1/1 244/2/1 245/3/1 241/4/1

g mesh_0011
f 254/1/1 139/2/1 255/3/1 256/4/1
f 139/1/1 257/2/1 258/3/1 255/4/1
f 257/1/1 140/2/1 259/3/1 258/4/1
f 140/1/1 260/2/1 261/3/1 259/4/1
f 260/1/1 141/2/1 262/3/1 261/4/1
f 141/1/1 263/2/1 264/3/1 262/4/1
f 263/1/1 142/2/1 265/3/1 264/4/1
f 142/1/1 266/2/1 267/3/1 265/4/1
f 268/1/1 269/2/1 139/3/1 254/4/1
f 269/1/1 270/2/1 257/3/1 139/4/1
f 270/1/1 271/2/1 140/3/1 257/4/1
f 271/1/1 272/2/1 260/3/1 140/4/1
f 272/1/1 273/2/1 141/3/1 260/4/1
f 273/1/1 274/2/1 263/3/1 141/4/1
f 274/1/1 275/2/1 142/3/1 263/4/1
f 275/1/1 276/2/1 266/3/1 142/4/1
f 236/1/1 277/2/1 269/3/1 268/4/1
f 277/1/1 238/2/1 270/3/1 269/4/1
f 238/1/1 278/2/1 271/3/1 270/4/1
f 278/1/1 240/2/1 272/3/1 271/4/1
f 240/1/1 279/2/1 273/3/1 272/4/1
f 279/1/1 242/2/1 274/3/1 273/4/1
f 242/1/1 280/2/1 275/3/1 274/4/1
f 280/1/1 244/2/1 276/3/1 275/4/1

g mesh_0012
f 281/1/1 3/2/1 282/3/1 283/4/1

g mesh_0013
f 3/1/1 284/2/1 285/3/1 282/4/1
f 284/1/1 6/2/1 286/3/1 285/4/1
f 6/1/1 287/2/1 288/3/1 286/4/1
f 287/1/1 8/2/1 289/3/1 288/4/1
f 8/1/1 290/2/1 291/3/1 289/4/1
f 290/1/1 10/2/1 292/3/1 291/4/1
f 10/1/1 293/2/1 294/3/1 292/4/1
f 293/1/1 12/2/1 295/3/1 294/4/1
f 12/1/1 296/2/1 297/3/1 295/4/1
f 296/1/1 14/2/1 298/3/1 297/4/1
f 14/1/1 299/2/1 300/3/1 298/4/1
f 299/1/1 16/2/1 301/3/1 300/4/1
f 16/1/1 302/2/1 303/3/1 301/4/1
f 302/1/1 18/2/1 304/3/1 303/4/1
f 18/1/1 305/2/1 306/3/1 304/4/1
f 305/1/1 20/2/1 307/3/1 306/4/1
f 20/1/1 308/2/1 309/3/1 307/4/1
f 308/1/1 22/2/1 310/3/1 309/4/1
f 311/1/1 312/2/1 3/3/1 281/4/1
f 313/1/1 314/2/1 315/3/1 22/4/1
f 316/1/1 2/2/1 312/3/1 311/4/1
f 21/1/1 317/2/1 314/3/1 313/4/1
f 318/1/1 319/2/1 2/3/1 316/4/1
f 320/1/1 321/2/1 317/3/1 21/4/1
f 322/1/1 24/2/1 319/3/1 318/4/1
f 33/1/1 323/2/1 321/3/1 320/4/1
f 324/1/1 325/2/1 24/3/1 322/4/1
f 169/1/1 326/2/1 323/3/1 33/4/1
f 327/1/1 35/2/1 325/3/1 324/4/1
f 44/1/1 328/2/1 326/3/1 169/4/1
f 329/1/1 330/2/1 35/3/1 327/4/1
f 331/1/1 332/2/1 328/3/1 44/4/1
f 333/1/1 46/2/1 330/3/1 329/4/1
f 55/1/1 334/2/1 332/3/1 331/4/1
f 334/1/1 68/2/1 335/3/1 332/4/1
f 68/1/1 336/2/1 337/3/1 335/4/1
f 336/1/1 70/2/1 338/3/1 337/4/1
f 70/1/1 339/2/1 340/3/1 338/4/1
f 339/1/1 72/2/1 341/3/1 340/4/1
f 72/1/1 342/2/1 343/3/1 341/4/1
f 342/1/1 74/2/1 344/3/1 343/4/1
f 74/1/1 345/2/1 346/3/1 344/4/1
f 345/1/1 76/2/1 347/3/1 346/4/1
f 76/1/1 348/2/1 349/3/1 347/4/1
f 348/1/1 78/2/1 350/3/1 349/4/1
f 78/1/1 351/2/1 352/3/1 350/4/1
f 351/1/1 80/2/1 353/3/1 352/4/1
f 80/1/1 354/2/1 355/3/1 353/4/1
f 354/1/1 82/2/1 356/3/1 355/4/1
f 357/1/1 358/2/1 46/3/1 333/4/1
f 359/1/1 57/2/1 358/3/1 357/4/1
f 360/1/1 361/2/1 57/3/1 359/4/1
f 362/1/1 84/2/1 361/3/1 360/4/1
f 363/1/1 364/2/1 84/3/1 362/4/1
f 365/1/1 366/2/1 367/3/1 93/4/1
f 366/1/1 368/2/1 94/3/1 367/4/1
f 368/1/1 369/2/1 370/3/1 94/4/1
f 369/1/1 371/2/1 95/3/1 370/4/1
f 371/1/1 372/2/1 373/3/1 95/4/1
f 372/1/1 374/2/1 96/3/1 373/4/1
f 374/1/1 375/2/1 376/3/1 96/4/1
f 375/1/1 377/2/1 97/3/1 376/4/1
f 377/1/1 378/2/1 379/3/1 97/4/1
f 378/1/1 380/2/1 98/3/1 379/4/1
f 380/1/1 381/2/1 382/3/1 98/4/1
f 381/1/1 383/2/1 99/3/1 382/4/1
f 383/1/1 384/2/1 385/3/1 99/4/1
f 384/1/1 386/2/1 100/3/1 385/4/1
f 386/1/1 387/2/1 388/3/1 100/4/1
f 387/1/1 389/2/1 101/3/1 388/4/1
f 390/1/1 103/2/1 364/3/1 363/4/1
f 112/1/1 391/2/1 366/3/1 365/4/1
f 392/1/1 393/2/1 103/3/1 390/4/1
f 214/1/1 394/2/1 391/3/1 112/4/1
f 395/1/1 114/2/1 393/3/1 392/4/1
f 123/1/1 396/2/1 394/3/1 214/4/1
f 397/1/1 398/2/1 114/3/1 395/4/1
f 399/1/1 400/2/1 396/3/1 123/4/1
f 401/1/1 125/2/1 398/3/1 397/4/1
f 134/1/1 402/2/1 400/3/1 399/4/1
f 403/1/1 404/2/1 125/3/1 401/4/1
f 405/1/1 406/2/1 402/3/1 134/4/1
f 136/1/1 407/2/1 203/3/1 404/4/1
f 407/1/1 137/2/1 408/3/1 203/4/1
f 137/1/1 409/2/1 410/3/1 408/4/1
f 409/1/1 138/2/1 411/3/1 410/4/1
f 138/1/1 254/2/1 256/3/1 411/4/1
f 254/1/1 139/2/1 255/3/1 256/4/1
f 139/1/1 257/2/1 258/3/1 255/4/1
f 257/1/1 140/2/1 259/3/1 258/4/1
f 140/1/1 260/2/1 261/3/1 259/4/1
f 260/1/1 141/2/1 262/3/1 261/4/1
f 141/1/1 263/2/1 264/3/1 262/4/1
f 263/1/1 142/2/1 265/3/1 264/4/1
f 142/1/1 266/2/1 267/3/1 265/4/1
f 266/1/1 143/2/1 412/3/1 267/4/1
f 143/1/1 413/2/1 414/3/1 412/4/1
f 413/1/1 144/2/1 415/3/1 414/4/1
f 144/1/1 416/2/1 212/3/1 415/4/1
f 416/1/1 145/2/1 405/3/1 212/4/1

g mesh_0014
f 22/1/1 315/2/1 417/3/1 310/4/1

g mesh_0015
f 418/1/1 136/2/1 404/3/1 403/4/1

g mesh_0016
f 145/1/1 419/2/1 406/3/1 405/4/1

