# Wavefront OBJ file automatically generated by Tiled2Unity

# Vertices (Count = 267)
v -1.04 -0.88 0
v -1.2 -0.88 0
v -1.2 -0.72 0
v -1.04 -0.72 0
v -1.36 -0.88 0
v -1.36 -0.72 0
v -1.52 -0.88 0
v -1.52 -0.72 0
v -1.68 -0.88 0
v -1.68 -0.72 0
v -1.84 -0.88 0
v -1.84 -0.72 0
v -0.88 -1.04 0
v -1.04 -1.04 0
v -0.88 -0.88 0
v -1.2 -1.04 0
v -1.36 -1.04 0
v -1.52 -1.04 0
v -1.68 -1.04 0
v -1.84 -1.04 0
v -2 -1.04 0
v -2 -0.88 0
v -0.72 -1.2 0
v -0.88 -1.2 0
v -0.72 -1.04 0
v -1.04 -1.2 0
v -1.2 -1.2 0
v -1.36 -1.2 0
v -1.52 -1.2 0
v -1.68 -1.2 0
v -1.84 -1.2 0
v -2 -1.2 0
v -2.16 -1.2 0
v -2.16 -1.04 0
v -0.72 -1.36 0
v -0.88 -1.36 0
v -1.04 -1.36 0
v -1.2 -1.36 0
v -1.36 -1.36 0
v -1.52 -1.36 0
v -1.68 -1.36 0
v -1.84 -1.36 0
v -2 -1.36 0
v -2.16 -1.36 0
v -0.72 -1.52 0
v -0.88 -1.52 0
v -1.04 -1.52 0
v -1.2 -1.52 0
v -1.36 -1.52 0
v -1.52 -1.52 0
v -1.68 -1.52 0
v -1.84 -1.52 0
v -2 -1.52 0
v -2.16 -1.52 0
v -0.72 -1.68 0
v -0.88 -1.68 0
v -1.04 -1.68 0
v -1.2 -1.68 0
v -1.36 -1.68 0
v -1.52 -1.68 0
v -1.68 -1.68 0
v -1.84 -1.68 0
v -2 -1.68 0
v -2.16 -1.68 0
v -0.72 -1.84 0
v -0.88 -1.84 0
v -1.04 -1.84 0
v -1.2 -1.84 0
v -1.36 -1.84 0
v -1.52 -1.84 0
v -1.68 -1.84 0
v -1.84 -1.84 0
v -2 -1.84 0
v -2.16 -1.84 0
v -0.72 -2 0
v -0.88 -2 0
v -1.04 -2 0
v -1.2 -2 0
v -1.36 -2 0
v -1.52 -2 0
v -1.68 -2 0
v -1.84 -2 0
v -2 -2 0
v -0.88 -2.16 0
v -1.04 -2.16 0
v -1.2 -2.16 0
v -1.36 -2.16 0
v -1.52 -2.16 0
v -1.68 -2.16 0
v -1.84 -2.16 0
v -2 -2.16 0
v -1.04 -2.32 0
v -1.2 -2.32 0
v -1.36 -2.32 0
v -1.52 -2.32 0
v -1.68 -2.32 0
v -1.84 -2.32 0
v -1.28 -1.2 0
v -1.36 -1.12 0
v -1.28 -1.12 0
v -1.2 -1.6 0
v -1.28 -1.6 0
v -1.28 -1.52 0
v -1.44 -1.2 0
v -1.44 -1.12 0
v -1.52 -1.12 0
v -1.36 -1.6 0
v -1.6 -1.2 0
v -1.6 -1.12 0
v -1.44 -1.6 0
v -1.44 -1.52 0
v -1.28 -1.28 0
v -1.36 -1.28 0
v -1.28 -1.68 0
v -1.44 -1.28 0
v -1.52 -1.28 0
v -1.6 -1.28 0
v -1.44 -1.68 0
v -1.28 -1.36 0
v -1.2 -1.76 0
v -1.28 -1.76 0
v -1.44 -1.36 0
v -1.36 -1.76 0
v -1.6 -1.36 0
v -1.44 -1.76 0
v -1.12 -1.04 0
v -1.28 -1.04 0
v -1.28 -0.72 0
v -1.12 -0.72 0
v -1.44 -1.04 0
v -1.44 -0.72 0
v -1.6 -1.04 0
v -1.6 -0.72 0
v -1.76 -1.04 0
v -1.76 -0.72 0
v -0.72 -1.12 0
v -1.12 -1.12 0
v -0.72 -0.72 0
v -1.76 -1.12 0
v -2.16 -1.12 0
v -2.16 -0.72 0
v -0.72 -1.28 0
v -1.04 -1.28 0
v -1.04 -1.12 0
v -0.72 -1.44 0
v -1.04 -1.44 0
v -0.72 -1.6 0
v -1.04 -1.6 0
v -0.72 -1.76 0
v -1.04 -1.76 0
v -0.72 -1.92 0
v -1.04 -1.92 0
v -1.84 -1.28 0
v -2.16 -1.28 0
v -1.84 -1.12 0
v -1.84 -1.44 0
v -2.16 -1.44 0
v -1.84 -1.6 0
v -2.16 -1.6 0
v -1.84 -1.76 0
v -2.16 -1.76 0
v -1.84 -1.92 0
v -2.16 -1.92 0
v -0.72 -2.32 0
v -1.12 -2.32 0
v -1.12 -1.92 0
v -1.28 -2.32 0
v -1.28 -2 0
v -1.12 -2 0
v -1.44 -2.32 0
v -1.44 -2 0
v -1.6 -2.32 0
v -1.6 -2 0
v -1.76 -2.32 0
v -1.76 -2 0
v -2.16 -2.32 0
v -1.76 -1.92 0
v -0.96 -1.28 0
v -1.12 -1.28 0
v -0.96 -1.12 0
v -1.44 -0.96 0
v -1.28 -0.96 0
v -1.6 -0.96 0
v -1.6 -1.44 0
v -1.92 -1.44 0
v -1.92 -1.04 0
v -0.96 -1.68 0
v -1.12 -1.68 0
v -1.12 -1.36 0
v -0.96 -1.36 0
v -1.12 -2.08 0
v -1.52 -2.08 0
v -1.52 -1.76 0
v -1.12 -1.76 0
v -1.12 -0.96 0
v -1.2 -0.96 0
v -1.12 -0.88 0
v -1.28 -0.88 0
v -1.36 -0.96 0
v -1.44 -0.88 0
v -1.52 -0.96 0
v -1.6 -0.88 0
v -1.68 -0.96 0
v -1.76 -0.96 0
v -1.76 -0.88 0
v -1.68 -1.12 0
v -0.96 -1.2 0
v -0.88 -1.12 0
v -1.92 -1.2 0
v -1.92 -1.12 0
v -2 -1.12 0
v -0.88 -1.28 0
v -1.68 -1.28 0
v -1.92 -1.28 0
v -2 -1.28 0
v -1.92 -1.36 0
v -0.88 -1.44 0
v -0.96 -1.44 0
v -1.68 -1.44 0
v -1.76 -1.44 0
v -1.76 -1.36 0
v -2 -1.44 0
v -0.96 -1.52 0
v -1.12 -1.52 0
v -1.12 -1.44 0
v -1.92 -1.52 0
v -0.88 -1.6 0
v -0.96 -1.6 0
v -1.12 -1.6 0
v -1.92 -1.6 0
v -2 -1.6 0
v -1.92 -1.68 0
v -0.88 -1.76 0
v -0.96 -1.76 0
v -1.92 -1.76 0
v -2 -1.76 0
v -0.96 -1.84 0
v -1.28 -1.84 0
v -1.44 -1.84 0
v -1.92 -1.84 0
v -0.88 -1.92 0
v -0.96 -1.92 0
v -1.2 -1.92 0
v -1.12 -1.84 0
v -1.44 -1.92 0
v -1.52 -1.92 0
v -1.92 -1.92 0
v -2 -1.92 0
v -1.2 -2.08 0
v -1.28 -2.08 0
v -1.36 -2.08 0
v -1.44 -2.08 0
v -1.12 -2.16 0
v -1.28 -2.16 0
v -1.44 -2.16 0
v -1.6 -2.16 0
v -1.6 -2.08 0
v -1.68 -2.08 0
v -1.76 -2.16 0
v -1.76 -2.08 0
v -1.04 -0.96 0
v -0.96 -1.04 0
v -1.92 -2 0
v -1.84 -2.08 0
v -0.96 -2 0
v -1.04 -2.08 0
v -1.84 -0.96 0

# Texture cooridinates (Count = 4)
vt 0.0001220703 0.0001220703
vt 0.9998779 0.0001220703
vt 0.9998779 0.9998779
vt 0.0001220703 0.9998779

# Normal
vn 0 0 -1

# Groups (Count = 6)

g mesh_0001
f 1/1/1 2/2/1 3/3/1 4/4/1
f 2/1/1 5/2/1 6/3/1 3/4/1
f 5/1/1 7/2/1 8/3/1 6/4/1
f 7/1/1 9/2/1 10/3/1 8/4/1
f 9/1/1 11/2/1 12/3/1 10/4/1
f 13/1/1 14/2/1 1/3/1 15/4/1
f 14/1/1 16/2/1 2/3/1 1/4/1
f 16/1/1 17/2/1 5/3/1 2/4/1
f 17/1/1 18/2/1 7/3/1 5/4/1
f 18/1/1 19/2/1 9/3/1 7/4/1
f 19/1/1 20/2/1 11/3/1 9/4/1
f 20/1/1 21/2/1 22/3/1 11/4/1
f 23/1/1 24/2/1 13/3/1 25/4/1
f 24/1/1 26/2/1 14/3/1 13/4/1
f 26/1/1 27/2/1 16/3/1 14/4/1
f 27/1/1 28/2/1 17/3/1 16/4/1
f 28/1/1 29/2/1 18/3/1 17/4/1
f 29/1/1 30/2/1 19/3/1 18/4/1
f 30/1/1 31/2/1 20/3/1 19/4/1
f 31/1/1 32/2/1 21/3/1 20/4/1
f 32/1/1 33/2/1 34/3/1 21/4/1
f 35/1/1 36/2/1 24/3/1 23/4/1
f 36/1/1 37/2/1 26/3/1 24/4/1
f 37/1/1 38/2/1 27/3/1 26/4/1
f 38/1/1 39/2/1 28/3/1 27/4/1
f 39/1/1 40/2/1 29/3/1 28/4/1
f 40/1/1 41/2/1 30/3/1 29/4/1
f 41/1/1 42/2/1 31/3/1 30/4/1
f 42/1/1 43/2/1 32/3/1 31/4/1
f 43/1/1 44/2/1 33/3/1 32/4/1
f 45/1/1 46/2/1 36/3/1 35/4/1
f 46/1/1 47/2/1 37/3/1 36/4/1
f 47/1/1 48/2/1 38/3/1 37/4/1
f 48/1/1 49/2/1 39/3/1 38/4/1
f 49/1/1 50/2/1 40/3/1 39/4/1
f 50/1/1 51/2/1 41/3/1 40/4/1
f 51/1/1 52/2/1 42/3/1 41/4/1
f 52/1/1 53/2/1 43/3/1 42/4/1
f 53/1/1 54/2/1 44/3/1 43/4/1
f 55/1/1 56/2/1 46/3/1 45/4/1
f 56/1/1 57/2/1 47/3/1 46/4/1
f 57/1/1 58/2/1 48/3/1 47/4/1
f 58/1/1 59/2/1 49/3/1 48/4/1
f 59/1/1 60/2/1 50/3/1 49/4/1
f 60/1/1 61/2/1 51/3/1 50/4/1
f 61/1/1 62/2/1 52/3/1 51/4/1
f 62/1/1 63/2/1 53/3/1 52/4/1
f 63/1/1 64/2/1 54/3/1 53/4/1
f 65/1/1 66/2/1 56/3/1 55/4/1
f 66/1/1 67/2/1 57/3/1 56/4/1
f 67/1/1 68/2/1 58/3/1 57/4/1
f 68/1/1 69/2/1 59/3/1 58/4/1
f 69/1/1 70/2/1 60/3/1 59/4/1
f 70/1/1 71/2/1 61/3/1 60/4/1
f 71/1/1 72/2/1 62/3/1 61/4/1
f 72/1/1 73/2/1 63/3/1 62/4/1
f 73/1/1 74/2/1 64/3/1 63/4/1
f 75/1/1 76/2/1 66/3/1 65/4/1
f 76/1/1 77/2/1 67/3/1 66/4/1
f 77/1/1 78/2/1 68/3/1 67/4/1
f 78/1/1 79/2/1 69/3/1 68/4/1
f 79/1/1 80/2/1 70/3/1 69/4/1
f 80/1/1 81/2/1 71/3/1 70/4/1
f 81/1/1 82/2/1 72/3/1 71/4/1
f 82/1/1 83/2/1 73/3/1 72/4/1
f 84/1/1 85/2/1 77/3/1 76/4/1
f 85/1/1 86/2/1 78/3/1 77/4/1
f 86/1/1 87/2/1 79/3/1 78/4/1
f 87/1/1 88/2/1 80/3/1 79/4/1
f 88/1/1 89/2/1 81/3/1 80/4/1
f 89/1/1 90/2/1 82/3/1 81/4/1
f 90/1/1 91/2/1 83/3/1 82/4/1
f 92/1/1 93/2/1 86/3/1 85/4/1
f 93/1/1 94/2/1 87/3/1 86/4/1
f 94/1/1 95/2/1 88/3/1 87/4/1
f 95/1/1 96/2/1 89/3/1 88/4/1
f 96/1/1 97/2/1 90/3/1 89/4/1

g mesh_0002
f 98/1/1 28/2/1 99/3/1 100/4/1
f 101/1/1 102/2/1 103/3/1 48/4/1

g mesh_0003
f 28/1/1 104/2/1 105/3/1 99/4/1
f 104/1/1 29/2/1 106/3/1 105/4/1
f 102/1/1 107/2/1 49/3/1 103/4/1

g mesh_0004
f 29/1/1 108/2/1 109/3/1 106/4/1
f 107/1/1 110/2/1 111/3/1 49/4/1

g mesh_0005
f 112/1/1 113/2/1 28/3/1 98/4/1
f 58/1/1 114/2/1 102/3/1 101/4/1

g mesh_0006
f 113/1/1 115/2/1 104/3/1 28/4/1

g mesh_0007
f 115/1/1 116/2/1 29/3/1 104/4/1

g mesh_0008
f 116/1/1 117/2/1 108/3/1 29/4/1
f 59/1/1 118/2/1 110/3/1 107/4/1

g mesh_0009
f 119/1/1 39/2/1 113/3/1 112/4/1
f 120/1/1 121/2/1 114/3/1 58/4/1

g mesh_0010
f 39/1/1 122/2/1 115/3/1 113/4/1
f 122/1/1 40/2/1 116/3/1 115/4/1
f 121/1/1 123/2/1 59/3/1 114/4/1

g mesh_0011
f 40/1/1 124/2/1 117/3/1 116/4/1
f 123/1/1 125/2/1 118/3/1 59/4/1

g mesh_0012
f 114/1/1 59/2/1 107/3/1 102/4/1

g mesh_0013
f 126/1/1 127/2/1 128/3/1 129/4/1
f 127/1/1 130/2/1 131/3/1 128/4/1
f 130/1/1 132/2/1 133/3/1 131/4/1
f 132/1/1 134/2/1 135/3/1 133/4/1

g mesh_0014
f 136/1/1 137/2/1 129/3/1 138/4/1

g mesh_0015
f 139/1/1 140/2/1 141/3/1 135/4/1

g mesh_0016
f 142/1/1 143/2/1 144/3/1 136/4/1
f 145/1/1 146/2/1 143/3/1 142/4/1
f 147/1/1 148/2/1 146/3/1 145/4/1
f 149/1/1 150/2/1 148/3/1 147/4/1
f 151/1/1 152/2/1 150/3/1 149/4/1

g mesh_0017
f 153/1/1 154/2/1 140/3/1 155/4/1
f 156/1/1 157/2/1 154/3/1 153/4/1
f 158/1/1 159/2/1 157/3/1 156/4/1
f 160/1/1 161/2/1 159/3/1 158/4/1
f 162/1/1 163/2/1 161/3/1 160/4/1

g mesh_0018
f 164/1/1 165/2/1 166/3/1 151/4/1

g mesh_0019
f 165/1/1 167/2/1 168/3/1 169/4/1
f 167/1/1 170/2/1 171/3/1 168/4/1
f 170/1/1 172/2/1 173/3/1 171/4/1
f 172/1/1 174/2/1 175/3/1 173/4/1

g mesh_0020
f 174/1/1 176/2/1 163/3/1 177/4/1

g mesh_0021
f 178/1/1 179/2/1 137/3/1 180/4/1

g mesh_0022
f 100/1/1 105/2/1 181/3/1 182/4/1

g mesh_0023
f 105/1/1 109/2/1 183/3/1 181/4/1

g mesh_0024
f 184/1/1 185/2/1 186/3/1 132/4/1

g mesh_0025
f 187/1/1 188/2/1 189/3/1 190/4/1

g mesh_0026
f 191/1/1 192/2/1 193/3/1 194/4/1

g mesh_0027
f 195/1/1 196/2/1 2/3/1 197/4/1
f 196/1/1 182/2/1 198/3/1 2/4/1
f 182/1/1 199/2/1 5/3/1 198/4/1
f 199/1/1 181/2/1 200/3/1 5/4/1
f 181/1/1 201/2/1 7/3/1 200/4/1
f 201/1/1 183/2/1 202/3/1 7/4/1
f 183/1/1 203/2/1 9/3/1 202/4/1
f 203/1/1 204/2/1 205/3/1 9/4/1
f 206/1/1 139/2/1 134/3/1 19/4/1
f 139/1/1 155/2/1 20/3/1 134/4/1
f 24/1/1 207/2/1 180/3/1 208/4/1
f 108/1/1 30/2/1 206/3/1 109/4/1
f 31/1/1 209/2/1 210/3/1 155/4/1
f 209/1/1 32/2/1 211/3/1 210/4/1
f 212/1/1 178/2/1 207/3/1 24/4/1
f 117/1/1 213/2/1 30/3/1 108/4/1
f 153/1/1 214/2/1 209/3/1 31/4/1
f 214/1/1 215/2/1 32/3/1 209/4/1
f 36/1/1 190/2/1 178/3/1 212/4/1
f 124/1/1 41/2/1 213/3/1 117/4/1
f 42/1/1 216/2/1 214/3/1 153/4/1
f 216/1/1 43/2/1 215/3/1 214/4/1
f 217/1/1 218/2/1 190/3/1 36/4/1
f 219/1/1 220/2/1 221/3/1 41/4/1
f 220/1/1 156/2/1 42/3/1 221/4/1
f 185/1/1 222/2/1 43/3/1 216/4/1
f 46/1/1 223/2/1 218/3/1 217/4/1
f 223/1/1 47/2/1 146/3/1 218/4/1
f 47/1/1 224/2/1 225/3/1 146/4/1
f 226/1/1 53/2/1 222/3/1 185/4/1
f 227/1/1 228/2/1 223/3/1 46/4/1
f 228/1/1 148/2/1 47/3/1 223/4/1
f 148/1/1 229/2/1 224/3/1 47/4/1
f 230/1/1 231/2/1 53/3/1 226/4/1
f 56/1/1 187/2/1 228/3/1 227/4/1
f 232/1/1 63/2/1 231/3/1 230/4/1
f 233/1/1 234/2/1 187/3/1 56/4/1
f 235/1/1 236/2/1 63/3/1 232/4/1
f 66/1/1 237/2/1 234/3/1 233/4/1
f 68/1/1 238/2/1 121/3/1 120/4/1
f 238/1/1 69/2/1 123/3/1 121/4/1
f 69/1/1 239/2/1 125/3/1 123/4/1
f 240/1/1 73/2/1 236/3/1 235/4/1
f 241/1/1 242/2/1 237/3/1 66/4/1
f 166/1/1 243/2/1 68/3/1 244/4/1
f 245/1/1 246/2/1 70/3/1 239/4/1
f 247/1/1 248/2/1 73/3/1 240/4/1
f 169/1/1 78/2/1 243/3/1 166/4/1
f 171/1/1 80/2/1 246/3/1 245/4/1
f 249/1/1 250/2/1 168/3/1 78/4/1
f 250/1/1 251/2/1 79/3/1 168/4/1
f 251/1/1 252/2/1 171/3/1 79/4/1
f 253/1/1 86/2/1 249/3/1 191/4/1
f 86/1/1 254/2/1 250/3/1 249/4/1
f 254/1/1 87/2/1 251/3/1 250/4/1
f 87/1/1 255/2/1 252/3/1 251/4/1
f 255/1/1 88/2/1 192/3/1 252/4/1
f 88/1/1 256/2/1 257/3/1 192/4/1
f 256/1/1 89/2/1 258/3/1 257/4/1
f 89/1/1 259/2/1 260/3/1 258/4/1

g mesh_0028
f 14/1/1 126/2/1 195/3/1 261/4/1
f 180/1/1 144/2/1 14/3/1 262/4/1
f 99/1/1 105/2/1 130/3/1 17/4/1
f 106/1/1 109/2/1 132/3/1 18/4/1
f 156/1/1 185/2/1 216/3/1 42/4/1
f 57/1/1 188/2/1 229/3/1 148/4/1
f 252/1/1 192/2/1 80/3/1 171/4/1

g mesh_0029
f 127/1/1 17/2/1 199/3/1 182/4/1
f 130/1/1 18/2/1 201/3/1 181/4/1
f 109/1/1 206/2/1 19/3/1 132/4/1
f 218/1/1 146/2/1 37/3/1 190/4/1
f 244/1/1 68/2/1 120/3/1 194/4/1
f 82/1/1 263/2/1 247/3/1 162/4/1
f 260/1/1 264/2/1 82/3/1 175/4/1

g mesh_0030
f 17/1/1 130/2/1 181/3/1 199/4/1
f 18/1/1 132/2/1 183/3/1 201/4/1
f 146/1/1 225/2/1 189/3/1 37/4/1
f 239/1/1 70/2/1 193/3/1 125/4/1
f 265/1/1 77/2/1 152/3/1 242/4/1
f 266/1/1 191/2/1 169/3/1 77/4/1

g mesh_0031
f 134/1/1 20/2/1 267/3/1 204/4/1
f 100/1/1 99/2/1 17/3/1 127/4/1
f 105/1/1 106/2/1 18/3/1 130/4/1
f 155/1/1 210/2/1 186/3/1 20/4/1
f 184/1/1 219/2/1 41/3/1 124/4/1
f 187/1/1 57/2/1 148/3/1 228/4/1
f 191/1/1 249/2/1 78/3/1 169/4/1

